<?xml version="1.0" encoding="UTF-8"?>
<svg xmlns="http://www.w3.org/2000/svg" xmlns:xlink="http://www.w3.org/1999/xlink" width="150px" height="44px" viewBox="0 0 150 44" version="1.1">
<g id="surface1">
<path style=" stroke:none;fill-rule:nonzero;fill:rgb(0%,0%,0%);fill-opacity:1;" d="M 102.53125 37.882812 C 102.589844 37.09375 102.371094 36.398438 101.941406 35.742188 C 101.5 35.078125 101.28125 34.355469 101.613281 33.558594 L 101.664062 33.378906 C 101.859375 32.664062 101.769531 32 101.242188 31.453125 C 100.84375 31.039062 100.734375 30.5625 100.851562 30.019531 C 101.003906 29.300781 100.953125 28.636719 100.523438 27.992188 C 100.148438 27.433594 100.085938 26.820312 100.382812 26.160156 C 100.632812 25.605469 100.796875 25.003906 100.957031 24.417969 C 101.078125 23.957031 101.082031 23.46875 100.90625 23.023438 C 100.765625 22.65625 100.804688 22.328125 100.890625 21.96875 C 100.984375 21.589844 101.035156 21.199219 101.085938 20.8125 C 101.125 20.511719 101.027344 20.25 100.804688 20.042969 C 100.511719 19.777344 100.410156 19.441406 100.457031 19.0625 C 100.515625 18.625 100.601562 18.195312 100.375 17.777344 C 100.332031 17.703125 100.355469 17.589844 100.363281 17.496094 C 100.417969 16.738281 100.226562 16.035156 99.929688 15.347656 C 99.761719 14.953125 99.6875 14.535156 99.734375 14.105469 C 99.820312 13.269531 99.765625 12.433594 99.621094 11.617188 C 99.464844 10.738281 99.21875 9.875 99.035156 8.996094 C 98.96875 8.695312 98.925781 8.375 98.945312 8.070312 C 98.984375 7.445312 99.058594 6.820312 99.144531 6.199219 C 99.246094 5.445312 99.425781 4.71875 99.75 4.027344 C 100.0625 3.359375 100.347656 2.675781 100.636719 1.996094 C 100.738281 1.75 100.828125 1.496094 100.890625 1.238281 C 100.964844 0.925781 100.960938 0.613281 100.773438 0.332031 C 100.523438 -0.046875 100.191406 -0.117188 99.863281 0.199219 C 99.597656 0.457031 99.34375 0.753906 99.164062 1.078125 C 98.8125 1.71875 98.410156 2.308594 97.921875 2.847656 C 97.582031 3.222656 97.4375 3.671875 97.414062 4.183594 C 97.375 5.179688 97.148438 6.109375 96.429688 6.863281 C 96.222656 7.078125 96.042969 7.320312 95.878906 7.566406 C 95.710938 7.8125 95.539062 8.066406 95.441406 8.34375 C 95.21875 8.996094 94.972656 9.652344 94.855469 10.328125 C 94.703125 11.230469 94.46875 12.101562 94.230469 12.980469 C 94.03125 13.710938 93.691406 14.3125 93.179688 14.839844 C 92.855469 15.171875 92.628906 15.570312 92.488281 16.003906 C 92.316406 16.527344 92.171875 17.058594 92.027344 17.589844 C 91.964844 17.832031 91.921875 18.082031 91.898438 18.328125 C 91.789062 19.519531 91.703125 20.710938 91.582031 21.894531 C 91.554688 22.175781 91.578125 22.488281 91.382812 22.746094 L 91.300781 22.671875 C 90.988281 22.242188 90.953125 21.746094 90.902344 21.242188 C 90.792969 20.054688 90.671875 18.867188 90.71875 17.671875 C 90.734375 17.3125 90.71875 16.949219 90.730469 16.589844 C 90.742188 16.292969 90.617188 16.074219 90.394531 15.898438 C 90.308594 15.832031 90.222656 15.769531 90.121094 15.695312 C 90.140625 15.472656 90.15625 15.257812 90.175781 15.039062 C 90.214844 14.507812 90.144531 14.015625 89.800781 13.570312 C 89.675781 13.410156 89.625 13.164062 89.625 12.957031 C 89.628906 12.421875 89.679688 11.890625 89.722656 11.359375 C 89.753906 10.917969 89.597656 10.558594 89.289062 10.257812 C 89.210938 10.179688 89.109375 10.117188 89.054688 10.03125 C 88.964844 9.890625 88.835938 9.730469 88.847656 9.585938 C 88.875 9.070312 88.917969 8.554688 89.019531 8.046875 C 89.097656 7.652344 89.277344 7.273438 89.390625 6.882812 C 89.59375 6.175781 89.808594 5.46875 89.96875 4.75 C 90.050781 4.382812 89.871094 4.125 89.558594 3.984375 C 89.265625 3.847656 89.015625 3.882812 88.78125 4.203125 C 88.371094 4.761719 87.992188 5.339844 87.644531 5.933594 C 87.492188 6.195312 87.429688 6.519531 87.359375 6.820312 C 87.246094 7.332031 87.125 7.839844 86.746094 8.226562 C 86.335938 8.644531 86.109375 9.152344 85.964844 9.710938 C 85.941406 9.800781 85.894531 9.886719 85.839844 10.019531 C 85.582031 9.359375 85.476562 9.292969 84.921875 9.425781 C 84.902344 9.335938 84.894531 9.242188 84.859375 9.160156 C 84.703125 8.785156 84.410156 8.726562 84.132812 9.023438 C 84.015625 9.148438 83.898438 9.292969 83.84375 9.449219 C 83.628906 10.039062 83.410156 10.628906 83.242188 11.230469 C 83.078125 11.835938 82.992188 12.464844 82.832031 13.070312 C 82.472656 14.402344 82.210938 15.765625 81.636719 17.035156 C 81.566406 17.1875 81.539062 17.363281 81.507812 17.535156 C 81.339844 18.441406 81.367188 19.347656 81.558594 20.25 C 81.789062 21.324219 81.765625 22.402344 81.597656 23.484375 C 81.492188 24.183594 81.082031 24.722656 80.640625 25.238281 C 79.941406 26.054688 79.636719 26.996094 79.722656 28.070312 C 79.765625 28.59375 79.875 29.089844 80.085938 29.570312 C 80.453125 30.402344 80.585938 31.253906 80.257812 32.132812 C 80.199219 32.28125 80.160156 32.433594 80.140625 32.589844 C 80.09375 32.980469 80.078125 33.363281 80.253906 33.742188 C 80.355469 33.960938 80.398438 34.226562 80.402344 34.46875 C 80.40625 35.429688 80.386719 36.386719 80.382812 37.34375 C 80.382812 37.515625 80.414062 37.691406 80.460938 37.855469 C 80.523438 38.09375 80.664062 38.289062 80.917969 38.347656 C 81.191406 38.410156 81.363281 38.230469 81.503906 38.035156 C 81.757812 37.6875 81.9375 37.304688 81.980469 36.871094 C 82.058594 36.09375 82.316406 35.375 82.617188 34.664062 C 82.753906 34.339844 82.8125 33.96875 82.835938 33.613281 C 82.878906 32.917969 82.726562 32.238281 82.582031 31.5625 C 82.546875 31.394531 82.519531 31.214844 82.550781 31.050781 C 82.691406 30.242188 83 29.496094 83.613281 28.945312 C 84.121094 28.488281 84.328125 27.972656 84.242188 27.3125 C 84.222656 27.15625 84.234375 26.996094 84.203125 26.84375 C 84.097656 26.371094 84.160156 25.914062 84.265625 25.445312 C 84.410156 24.804688 84.574219 24.15625 84.625 23.503906 C 84.714844 22.417969 84.902344 21.359375 85.15625 20.304688 C 85.332031 19.570312 85.335938 18.847656 85.074219 18.125 C 84.824219 17.421875 84.84375 16.707031 85.089844 15.996094 C 85.210938 15.640625 85.277344 15.265625 85.394531 14.910156 C 85.527344 14.515625 85.617188 14.09375 85.984375 13.691406 C 86.011719 13.921875 86.054688 14.066406 86.046875 14.210938 C 86.023438 14.679688 85.988281 15.152344 85.941406 15.617188 C 85.882812 16.226562 86.011719 16.746094 86.550781 17.101562 C 86.789062 17.257812 86.910156 17.484375 86.957031 17.761719 C 87.003906 18.039062 87.144531 18.300781 87.382812 18.410156 C 87.949219 18.671875 88.042969 19.160156 88.097656 19.6875 L 88.109375 19.828125 C 88.222656 20.769531 88.386719 21.683594 88.851562 22.535156 C 89.042969 22.878906 89.066406 23.316406 89.148438 23.710938 C 89.207031 23.972656 89.183594 24.257812 89.28125 24.496094 C 89.476562 24.972656 89.445312 25.441406 89.394531 25.933594 C 89.292969 26.972656 89.574219 27.574219 90.496094 27.757812 C 90.722656 27.804688 90.851562 27.941406 90.871094 28.179688 C 90.894531 28.410156 90.925781 28.644531 90.957031 28.878906 C 91.035156 29.488281 91.128906 30.097656 91.511719 30.609375 C 91.734375 30.90625 92.015625 31.078125 92.40625 30.988281 C 92.726562 30.914062 92.992188 30.585938 93.027344 30.1875 C 93.058594 29.828125 93.089844 29.464844 93.066406 29.105469 C 93.011719 28.125 93.296875 27.25 93.765625 26.402344 C 93.898438 26.164062 94.003906 25.886719 94.039062 25.613281 C 94.105469 25.117188 94.128906 24.613281 94.144531 24.113281 C 94.171875 23.207031 94.335938 22.359375 95.0625 21.726562 L 95.15625 21.621094 C 95.8125 20.726562 96.183594 19.757812 95.953125 18.625 C 95.777344 17.753906 95.929688 16.90625 96.160156 16.066406 C 96.203125 15.902344 96.273438 15.746094 96.328125 15.582031 C 96.410156 15.777344 96.410156 15.949219 96.410156 16.121094 C 96.410156 16.652344 96.574219 17.105469 97.03125 17.425781 C 97.144531 17.503906 97.242188 17.613281 97.335938 17.71875 C 97.5625 17.984375 97.683594 18.28125 97.582031 18.632812 C 97.492188 18.964844 97.398438 19.296875 97.296875 19.628906 C 97.101562 20.273438 96.8125 20.90625 96.71875 21.5625 C 96.585938 22.496094 96.628906 23.449219 96.992188 24.351562 C 97.066406 24.539062 97.144531 24.738281 97.15625 24.933594 C 97.179688 25.390625 97.191406 25.847656 97.164062 26.300781 C 97.0625 27.832031 97.480469 29.191406 98.46875 30.367188 C 98.722656 30.667969 98.746094 30.988281 98.652344 31.375 C 98.519531 31.902344 98.433594 32.449219 98.394531 32.992188 C 98.347656 33.574219 98.585938 34.03125 99.167969 34.253906 L 99.25 34.339844 C 99.25 34.636719 99.25 34.949219 99.246094 35.261719 C 99.242188 35.679688 99.378906 36.039062 99.695312 36.3125 C 99.941406 36.527344 100.195312 36.746094 100.476562 36.914062 C 100.761719 37.089844 100.847656 37.308594 100.804688 37.625 C 100.765625 37.921875 100.753906 38.21875 100.734375 38.515625 C 100.714844 38.765625 100.78125 38.988281 101.019531 39.113281 C 101.246094 39.230469 101.410156 39.09375 101.578125 38.972656 L 101.667969 38.96875 L 101.726562 39.035156 C 102 39.3125 102.179688 39.359375 102.421875 39.21875 C 102.664062 39.082031 102.714844 38.878906 102.625 38.527344 C 102.574219 38.316406 102.515625 38.09375 102.53125 37.882812 "/>
<path style=" stroke:none;fill-rule:nonzero;fill:rgb(0%,0%,0%);fill-opacity:1;" d="M 27.554688 39.695312 C 27.460938 39.113281 27.222656 38.585938 26.808594 38.148438 C 26.308594 37.621094 26.003906 37.007812 25.957031 36.265625 C 25.902344 35.410156 25.410156 34.84375 24.636719 34.542969 C 24.382812 34.445312 24.199219 34.3125 24.078125 34.078125 C 23.933594 33.800781 23.769531 33.53125 23.648438 33.242188 C 23.492188 32.878906 23.226562 32.632812 22.867188 32.554688 C 22.445312 32.457031 22.257812 32.203125 22.167969 31.828125 C 22.132812 31.6875 22.085938 31.554688 22.066406 31.414062 C 21.921875 30.511719 21.429688 29.851562 20.660156 29.398438 C 20.414062 29.25 20.289062 29.046875 20.175781 28.796875 C 19.9375 28.285156 19.722656 27.738281 19.375 27.3125 C 18.878906 26.703125 18.253906 26.234375 17.371094 26.582031 L 17.261719 26.550781 C 17.152344 26.328125 17.058594 26.078125 16.921875 25.851562 C 16.59375 25.300781 16.375 25.253906 15.824219 25.570312 L 15.75 25.574219 C 15.699219 25.476562 15.648438 25.367188 15.59375 25.257812 C 15.40625 24.878906 15.234375 24.488281 15.019531 24.125 C 14.828125 23.796875 14.59375 23.5 14.136719 23.523438 C 14.023438 23.527344 13.902344 23.417969 13.695312 23.324219 C 13.925781 23.164062 14.042969 23.058594 14.179688 22.988281 C 14.609375 22.777344 14.929688 22.46875 15.089844 22.015625 C 15.164062 21.816406 15.300781 21.703125 15.480469 21.644531 C 15.707031 21.578125 15.9375 21.515625 16.167969 21.496094 C 16.792969 21.441406 17.210938 21.066406 17.515625 20.574219 C 17.828125 20.070312 18.058594 19.511719 18.15625 18.914062 C 18.207031 18.605469 18.261719 18.324219 18.578125 18.136719 C 18.730469 18.046875 18.824219 17.8125 18.878906 17.625 C 18.945312 17.386719 18.976562 17.128906 18.972656 16.878906 C 18.96875 16.449219 19.074219 16.089844 19.382812 15.769531 C 19.949219 15.1875 20.109375 14.46875 19.976562 13.675781 C 19.871094 13.039062 19.804688 12.414062 20.042969 11.773438 C 20.324219 11.019531 20.144531 10.347656 19.496094 9.835938 C 19.300781 9.679688 19.226562 9.507812 19.261719 9.269531 C 19.28125 9.132812 19.296875 8.988281 19.300781 8.847656 C 19.324219 8.363281 19.351562 7.878906 19.355469 7.394531 C 19.355469 7.257812 19.308594 7.101562 19.230469 6.996094 C 18.667969 6.25 18.21875 6.023438 17.425781 6.300781 C 17.261719 6.355469 17.097656 6.417969 16.929688 6.445312 C 16.65625 6.492188 16.5625 6.402344 16.53125 6.128906 C 16.511719 5.925781 16.507812 5.71875 16.46875 5.519531 C 16.386719 5.101562 16.144531 4.898438 15.714844 4.878906 C 15.5625 4.871094 15.402344 4.875 15.25 4.90625 C 14.773438 5 14.367188 4.921875 13.984375 4.59375 C 13.714844 4.363281 13.382812 4.203125 13.0625 4.035156 C 12.507812 3.742188 11.933594 3.484375 11.382812 3.1875 C 11.042969 3.003906 10.6875 2.90625 10.304688 2.890625 C 10.117188 2.882812 9.925781 2.910156 9.742188 2.875 C 9.132812 2.765625 8.640625 2.988281 8.175781 3.355469 C 7.65625 3.761719 7.125 4.15625 6.582031 4.53125 C 5.867188 5.023438 5.097656 5.269531 4.226562 4.992188 L 4.042969 4.953125 C 3.6875 4.839844 3.367188 4.933594 3.042969 5.085938 C 2.519531 5.332031 2.085938 5.679688 1.714844 6.117188 C 1.496094 6.371094 1.273438 6.46875 0.9375 6.3125 C 0.636719 6.179688 0.460938 6.234375 0.320312 6.46875 C -0.0195312 7.035156 -0.242188 7.964844 0.464844 8.636719 C 0.582031 8.742188 0.695312 8.851562 0.816406 8.953125 C 1.304688 9.359375 1.371094 9.867188 1.191406 10.445312 C 1.113281 10.699219 1.027344 10.953125 0.980469 11.214844 C 0.789062 12.289062 0.871094 13.285156 1.785156 14.050781 C 1.976562 14.210938 2.140625 14.410156 2.292969 14.609375 C 2.566406 14.964844 2.773438 15.34375 2.648438 15.824219 C 2.554688 16.191406 2.515625 16.566406 2.421875 16.929688 C 2.34375 17.234375 2.34375 17.511719 2.527344 17.785156 C 2.589844 17.882812 2.636719 18.023438 2.625 18.136719 C 2.59375 18.429688 2.65625 18.695312 2.785156 18.957031 C 2.917969 19.234375 2.929688 19.511719 2.84375 19.820312 C 2.699219 20.324219 2.753906 20.816406 3.109375 21.242188 C 3.261719 21.421875 3.398438 21.613281 3.550781 21.792969 C 3.773438 22.0625 3.886719 22.347656 3.78125 22.707031 C 3.660156 23.113281 3.722656 23.503906 3.90625 23.894531 C 4.296875 24.726562 4.550781 25.605469 4.554688 26.527344 C 4.554688 27.050781 4.605469 27.597656 4.292969 28.082031 C 4.027344 28.488281 4.175781 28.902344 4.449219 29.210938 C 4.820312 29.644531 4.996094 30.15625 5.183594 30.671875 C 5.273438 30.917969 5.25 31.125 5.113281 31.34375 C 4.699219 31.992188 4.679688 32.695312 4.847656 33.429688 C 4.964844 33.945312 5.195312 34.40625 5.476562 34.839844 C 5.679688 35.148438 5.828125 35.472656 5.886719 35.832031 C 5.933594 36.140625 6.054688 36.398438 6.296875 36.601562 C 6.375 36.667969 6.449219 36.777344 6.457031 36.871094 C 6.507812 37.382812 6.628906 37.890625 6.484375 38.414062 C 6.332031 38.949219 6.457031 39.230469 6.941406 39.519531 C 7.269531 39.714844 7.386719 39.992188 7.40625 40.335938 C 7.421875 40.601562 7.402344 40.871094 7.417969 41.136719 C 7.441406 41.609375 7.585938 42.03125 7.960938 42.347656 C 8.128906 42.492188 8.3125 42.636719 8.550781 42.535156 C 8.796875 42.433594 8.894531 42.214844 8.902344 41.964844 C 8.90625 41.667969 8.894531 41.367188 8.875 41.070312 C 8.839844 40.550781 8.859375 40.058594 9.390625 39.765625 L 9.460938 39.703125 C 10.019531 39.152344 10.078125 38.570312 9.6875 37.878906 C 9.402344 37.375 9.273438 36.835938 9.527344 36.261719 C 9.628906 36.035156 9.710938 35.78125 9.730469 35.539062 C 9.746094 35.296875 9.722656 35.023438 9.621094 34.816406 C 9.417969 34.410156 9.152344 34.035156 8.902344 33.652344 C 8.511719 33.058594 8.289062 32.449219 8.710938 31.769531 L 8.769531 31.640625 C 9.171875 30.910156 9.207031 30.179688 8.753906 29.453125 C 8.613281 29.230469 8.597656 29.019531 8.753906 28.796875 C 9.042969 28.386719 8.984375 27.972656 8.757812 27.554688 C 8.625 27.308594 8.507812 27.046875 8.414062 26.78125 C 8.234375 26.277344 8.398438 25.96875 9 25.753906 C 9.238281 26.015625 9.496094 26.308594 9.769531 26.59375 C 10.171875 27.011719 10.675781 27.171875 11.230469 27.011719 C 11.644531 26.894531 11.894531 27.066406 12.097656 27.375 C 12.3125 27.703125 12.496094 28.050781 12.71875 28.375 C 12.894531 28.628906 13.089844 28.882812 13.3125 29.097656 C 13.546875 29.324219 13.730469 29.292969 13.96875 29.066406 C 14.402344 28.640625 14.496094 28.632812 14.914062 29.066406 C 15.144531 29.308594 15.390625 29.480469 15.734375 29.4375 C 15.992188 29.40625 16.15625 29.515625 16.257812 29.738281 C 16.476562 30.226562 16.710938 30.703125 16.910156 31.195312 C 17.160156 31.816406 17.574219 32.011719 18.175781 31.757812 C 18.261719 31.722656 18.34375 31.679688 18.433594 31.644531 C 18.769531 31.507812 18.804688 31.5 19 31.828125 C 19.238281 32.230469 19.457031 32.652344 19.65625 33.074219 C 19.925781 33.644531 20.367188 34.015625 20.964844 34.121094 C 21.328125 34.183594 21.519531 34.355469 21.664062 34.652344 C 21.742188 34.804688 21.832031 34.953125 21.910156 35.109375 C 22.261719 35.824219 22.660156 36.492188 23.484375 36.757812 L 23.640625 36.859375 C 24.046875 37.140625 24.429688 37.433594 24.457031 37.996094 C 24.484375 38.554688 24.714844 39.058594 24.921875 39.566406 C 25.0625 39.914062 25.269531 40.195312 25.605469 40.375 C 25.878906 40.523438 26.0625 40.742188 26.171875 41.039062 C 26.277344 41.320312 26.402344 41.589844 26.535156 41.859375 C 26.71875 42.226562 27.054688 42.457031 27.289062 42.394531 C 27.535156 42.332031 27.664062 42.0625 27.648438 41.597656 C 27.644531 41.394531 27.542969 41.171875 27.601562 40.996094 C 27.75 40.546875 27.621094 40.121094 27.554688 39.695312 M 13.265625 19.695312 C 13.167969 19.757812 13.042969 19.785156 12.929688 19.808594 C 12.671875 19.871094 12.40625 19.894531 12.15625 19.976562 C 11.875 20.070312 11.597656 20.1875 11.339844 20.335938 C 11.140625 20.449219 10.949219 20.601562 10.804688 20.773438 C 10.597656 21.03125 10.355469 21.207031 10.023438 21.339844 C 9.914062 21.246094 9.804688 21.132812 9.679688 21.046875 C 9.125 20.671875 8.789062 20.644531 8.347656 20.980469 C 8.226562 21.070312 8.082031 21.128906 7.84375 21.265625 C 7.890625 20.96875 7.902344 20.777344 7.953125 20.59375 C 7.996094 20.429688 8.089844 20.277344 8.152344 20.117188 C 8.339844 19.621094 8.28125 19.414062 7.832031 19.125 C 7.644531 19.007812 7.574219 18.875 7.578125 18.667969 C 7.585938 18.351562 7.582031 18.039062 7.582031 17.722656 C 7.578125 17.257812 7.394531 16.910156 6.960938 16.703125 C 6.671875 16.5625 6.644531 16.460938 6.71875 16.136719 C 6.761719 15.941406 6.800781 15.738281 6.820312 15.535156 C 6.902344 14.859375 6.5625 14.386719 6.066406 13.984375 C 5.980469 13.914062 5.890625 13.785156 5.894531 13.683594 C 5.90625 13.203125 5.746094 12.722656 5.933594 12.238281 C 6.054688 11.933594 5.859375 11.6875 5.652344 11.488281 C 5.324219 11.179688 5.289062 10.808594 5.367188 10.40625 C 5.433594 10.066406 5.589844 9.960938 5.929688 10.007812 C 6.023438 10.023438 6.121094 10.027344 6.207031 10.050781 C 6.980469 10.285156 7.589844 9.992188 8.125 9.464844 C 8.214844 9.375 8.308594 9.289062 8.394531 9.199219 C 8.691406 8.894531 9.054688 8.785156 9.46875 8.828125 C 9.734375 8.855469 9.996094 8.921875 10.261719 8.933594 C 10.601562 8.953125 10.945312 8.941406 11.328125 8.941406 C 12.078125 10.300781 12.398438 10.464844 13.554688 10.046875 C 13.832031 10.324219 14.140625 10.578125 13.9375 11.074219 C 13.847656 11.304688 13.929688 11.546875 14.09375 11.734375 C 14.316406 12 14.539062 12.265625 14.78125 12.507812 C 14.949219 12.671875 15.152344 12.800781 15.339844 12.953125 C 15.21875 13.152344 15.160156 13.257812 15.09375 13.359375 C 14.816406 13.761719 14.757812 14.042969 15.0625 14.386719 C 15.480469 14.867188 15.261719 15.367188 15.234375 15.871094 L 15.175781 15.992188 C 14.878906 16.328125 14.574219 16.664062 14.277344 17 C 13.984375 17.332031 13.898438 17.75 13.828125 18.167969 C 13.789062 18.414062 13.777344 18.667969 13.738281 18.914062 C 13.683594 19.238281 13.550781 19.519531 13.265625 19.695312 "/>
<path style=" stroke:none;fill-rule:nonzero;fill:rgb(0%,0%,0%);fill-opacity:1;" d="M 149.691406 19.382812 C 149.46875 19.277344 149.257812 19.328125 149.054688 19.414062 C 148.523438 19.644531 147.984375 19.863281 147.46875 20.121094 C 147.132812 20.289062 146.78125 20.472656 146.53125 20.738281 C 145.746094 21.570312 144.613281 21.871094 143.769531 22.605469 L 143.6875 22.648438 C 142.933594 22.953125 142.191406 23.300781 141.417969 23.546875 C 140.742188 23.757812 140.046875 23.886719 139.59375 24.535156 C 139.582031 24.367188 139.59375 24.230469 139.640625 24.101562 C 139.78125 23.734375 139.71875 23.390625 139.515625 23.070312 C 139.367188 22.828125 139.199219 22.601562 139.050781 22.359375 C 138.976562 22.246094 138.890625 22.109375 138.890625 21.984375 C 138.898438 21.675781 138.761719 21.453125 138.589844 21.214844 C 138.480469 21.0625 138.390625 20.851562 138.382812 20.667969 C 138.355469 19.695312 138.359375 18.722656 138.339844 17.75 C 138.332031 17.261719 138.121094 16.882812 137.691406 16.621094 C 137.566406 16.542969 137.425781 16.414062 137.390625 16.28125 C 137.128906 15.332031 136.558594 14.480469 136.515625 13.460938 C 136.511719 13.355469 136.480469 13.242188 136.441406 13.140625 C 136.132812 12.335938 135.835938 11.523438 135.496094 10.730469 C 135.359375 10.402344 135.144531 10.101562 134.933594 9.808594 C 134.851562 9.703125 134.652344 9.570312 134.5625 9.605469 C 134.425781 9.648438 134.277344 9.820312 134.25 9.964844 C 134.203125 10.21875 134.230469 10.492188 134.242188 10.757812 C 134.265625 11.570312 134.300781 12.386719 134.332031 13.210938 C 133.820312 13.328125 133.695312 13.667969 133.726562 14.078125 C 133.765625 14.625 133.828125 15.167969 133.890625 15.710938 C 133.925781 16.023438 134.003906 16.328125 134.015625 16.640625 C 134.03125 17.253906 134.023438 17.867188 134.011719 18.480469 C 134 19.167969 134.113281 19.828125 134.40625 20.449219 C 134.652344 20.96875 134.804688 21.503906 134.828125 22.078125 C 134.84375 22.375 134.859375 22.671875 134.851562 22.96875 C 134.84375 23.265625 134.949219 23.496094 135.175781 23.667969 C 135.332031 23.789062 135.511719 23.875 135.773438 24.035156 C 135.570312 24.773438 135.378906 25.535156 135.148438 26.285156 C 134.925781 27.003906 134.625 27.691406 134.832031 28.484375 C 134.925781 28.839844 134.78125 28.988281 134.425781 29.109375 C 134.203125 29.1875 133.972656 29.234375 133.753906 29.320312 C 133.183594 29.542969 132.605469 29.746094 132.058594 30.015625 C 131.585938 30.25 131.558594 30.550781 131.894531 30.960938 L 131.964844 31.066406 L 131.910156 31.152344 C 131.804688 31.21875 131.695312 31.28125 131.585938 31.339844 C 130.875 31.707031 130.300781 32.238281 129.792969 32.847656 C 129.449219 33.257812 129.445312 33.535156 129.722656 33.957031 C 130.046875 34.445312 130.039062 34.609375 129.609375 34.996094 C 129.085938 35.472656 128.550781 35.933594 128.015625 36.390625 C 127.769531 36.597656 127.566406 36.820312 127.453125 37.128906 C 127.414062 37.230469 127.324219 37.355469 127.226562 37.390625 C 126.65625 37.597656 126.300781 38.023438 126.023438 38.53125 C 125.777344 38.984375 125.449219 39.355469 124.988281 39.59375 C 124.738281 39.722656 124.46875 39.808594 124.222656 39.945312 C 123.128906 40.558594 122.234375 41.421875 121.339844 42.28125 C 121.132812 42.476562 121.011719 42.773438 120.894531 43.042969 C 120.769531 43.320312 120.710938 43.621094 120.996094 43.859375 C 121.242188 44.058594 121.53125 44.0625 121.875 43.859375 L 122.066406 43.722656 C 122.703125 43.1875 123.328125 42.640625 123.976562 42.117188 C 124.214844 41.925781 124.484375 41.734375 124.773438 41.640625 C 125.335938 41.453125 125.917969 41.316406 126.496094 41.1875 C 127.125 41.046875 127.671875 40.789062 128.125 40.308594 C 128.730469 39.671875 129.371094 39.070312 130 38.453125 C 130.101562 38.355469 130.207031 38.257812 130.328125 38.183594 C 130.734375 37.941406 131.03125 37.589844 131.199219 37.164062 C 131.503906 36.402344 132.003906 35.78125 132.523438 35.171875 C 132.757812 34.898438 133.015625 34.640625 133.234375 34.351562 C 133.371094 34.171875 133.496094 33.957031 133.550781 33.738281 C 133.722656 33.058594 134.113281 32.5625 134.6875 32.183594 C 135.488281 31.65625 136.273438 31.113281 137.070312 30.578125 C 137.417969 30.347656 137.671875 30.042969 137.863281 29.667969 C 137.980469 29.429688 138.132812 29.207031 138.300781 29.003906 C 138.785156 28.417969 139.40625 28.054688 140.140625 27.839844 C 141.316406 27.492188 142.152344 26.71875 142.683594 25.621094 C 142.820312 25.332031 143.03125 25.140625 143.285156 24.984375 C 143.457031 24.875 143.648438 24.789062 143.835938 24.71875 C 144.390625 24.511719 144.859375 24.183594 145.300781 23.792969 C 145.558594 23.566406 145.832031 23.34375 146.132812 23.183594 C 147.042969 22.703125 147.847656 22.078125 148.59375 21.375 C 149.027344 20.964844 149.441406 20.53125 149.84375 20.09375 C 150.101562 19.816406 150.03125 19.546875 149.691406 19.382812 "/>
<path style=" stroke:none;fill-rule:nonzero;fill:rgb(0%,0%,0%);fill-opacity:1;" d="M 73.191406 27.867188 C 72.929688 27.242188 72.699219 26.613281 72.738281 25.914062 C 72.769531 25.429688 72.726562 24.945312 72.746094 24.460938 C 72.757812 24.070312 72.773438 23.671875 72.863281 23.292969 C 73.015625 22.621094 73.21875 21.960938 73.414062 21.296875 C 73.503906 20.988281 73.484375 20.699219 73.285156 20.449219 C 73 20.097656 72.96875 19.699219 73.066406 19.292969 C 73.183594 18.789062 73.347656 18.296875 73.480469 17.796875 C 73.527344 17.617188 73.582031 17.429688 73.570312 17.246094 C 73.558594 16.933594 73.433594 16.648438 73.128906 16.523438 C 72.800781 16.386719 72.507812 16.511719 72.28125 16.765625 C 72.128906 16.9375 71.964844 17.128906 71.882812 17.339844 C 71.734375 17.71875 71.628906 18.113281 71.53125 18.511719 C 71.339844 19.285156 71.167969 20.0625 70.988281 20.839844 L 70.925781 21.015625 C 70.554688 21.585938 70.429688 22.226562 70.34375 22.886719 C 70.296875 23.226562 70.117188 23.453125 69.796875 23.644531 C 69.332031 23.921875 68.898438 24.273438 68.511719 24.652344 C 68.144531 25.011719 67.851562 25.445312 67.527344 25.847656 C 67.535156 25.574219 67.519531 25.292969 67.570312 25.027344 C 67.734375 24.101562 67.929688 23.183594 68.105469 22.257812 C 68.195312 21.796875 68.292969 21.332031 68.351562 20.867188 C 68.378906 20.625 68.375 20.359375 68.308594 20.125 C 68.222656 19.839844 68.046875 19.574219 67.695312 19.554688 C 67.359375 19.53125 67.132812 19.714844 66.972656 19.992188 C 66.917969 20.085938 66.867188 20.1875 66.828125 20.285156 C 66.414062 21.308594 66.007812 22.335938 65.566406 23.425781 C 65.421875 22.757812 65.148438 22.273438 64.402344 22.445312 C 64.140625 22.007812 64.074219 21.558594 63.984375 21.113281 C 63.914062 20.761719 63.746094 20.46875 63.503906 20.214844 C 63.3125 20.015625 63.074219 20.015625 62.847656 20.097656 C 62.613281 20.183594 62.460938 20.351562 62.460938 20.632812 C 62.460938 20.867188 62.421875 21.097656 62.40625 21.332031 C 62.378906 21.722656 62.332031 22.113281 62.328125 22.5 C 62.328125 22.910156 62.351562 23.320312 62.398438 23.722656 C 62.46875 24.328125 62.101562 24.726562 61.78125 25.210938 C 61.625 24.890625 61.46875 24.632812 61.371094 24.355469 C 61.304688 24.167969 61.332031 23.949219 61.289062 23.753906 C 61.222656 23.445312 61.121094 23.148438 61.050781 22.84375 C 60.972656 22.492188 60.90625 22.140625 60.847656 21.789062 C 60.820312 21.617188 60.828125 21.441406 60.796875 21.273438 C 60.644531 20.457031 60.414062 19.65625 60.410156 18.816406 C 60.410156 18.554688 60.371094 18.28125 60.304688 18.027344 C 60.226562 17.742188 60.015625 17.589844 59.796875 17.640625 C 59.519531 17.707031 59.242188 17.800781 59.089844 18.066406 C 58.9375 18.339844 58.796875 18.621094 58.691406 18.914062 C 58.578125 19.222656 58.511719 19.546875 58.425781 19.867188 C 58.371094 20.089844 58.246094 20.226562 57.996094 20.214844 C 57.546875 20.195312 57.316406 20.476562 57.15625 20.84375 C 57.042969 21.101562 56.960938 21.375 56.832031 21.625 C 56.484375 22.289062 56.398438 22.960938 56.683594 23.667969 C 56.78125 23.910156 56.804688 24.15625 56.714844 24.402344 C 56.402344 25.253906 56.25 26.167969 55.746094 26.949219 C 55.644531 27.105469 55.558594 27.292969 55.542969 27.472656 C 55.515625 27.777344 55.445312 28.15625 55.585938 28.382812 C 55.835938 28.789062 55.882812 29.191406 55.871094 29.636719 C 55.867188 29.726562 55.882812 29.824219 55.902344 29.914062 C 55.976562 30.203125 56.203125 30.410156 56.453125 30.421875 C 56.726562 30.4375 56.894531 30.296875 56.996094 29.941406 C 57.070312 29.683594 57.164062 29.445312 57.363281 29.246094 C 57.597656 29.015625 57.648438 28.710938 57.53125 28.414062 C 57.441406 28.171875 57.507812 27.988281 57.644531 27.804688 C 57.746094 27.664062 57.867188 27.535156 57.945312 27.382812 C 58.023438 27.238281 58.105469 27.070312 58.101562 26.910156 C 58.097656 26.382812 58.382812 26.003906 58.6875 25.59375 C 58.792969 25.675781 58.859375 25.753906 58.9375 25.785156 C 59.3125 25.914062 59.445312 26.222656 59.550781 26.558594 C 59.695312 27.039062 59.808594 27.53125 59.992188 27.996094 C 60.246094 28.636719 60.546875 29.253906 60.832031 29.882812 L 60.945312 30.03125 C 61.101562 30.195312 61.285156 30.242188 61.503906 30.167969 C 61.789062 30.070312 61.964844 29.875 61.964844 29.578125 C 61.96875 28.953125 61.945312 28.324219 61.929688 27.699219 C 61.917969 27.347656 61.894531 26.996094 61.878906 26.589844 C 62.207031 26.765625 62.339844 26.96875 62.308594 27.269531 C 62.296875 27.410156 62.320312 27.554688 62.300781 27.691406 C 62.214844 28.234375 62.566406 28.53125 62.921875 28.824219 C 63.054688 28.9375 63.226562 28.9375 63.355469 28.820312 C 63.691406 28.507812 64.019531 28.183594 63.953125 27.65625 C 63.9375 27.519531 63.933594 27.371094 63.964844 27.238281 C 64.097656 26.730469 64.046875 26.246094 63.851562 25.765625 C 63.785156 25.609375 63.757812 25.457031 63.855469 25.265625 C 64.082031 25.472656 64.320312 25.621094 64.460938 25.832031 C 64.789062 26.328125 65.078125 26.851562 65.367188 27.371094 C 65.59375 27.78125 65.785156 28.210938 66.003906 28.628906 C 66.121094 28.84375 66.289062 29.015625 66.5625 28.992188 C 66.835938 28.964844 67.023438 28.816406 67.097656 28.535156 C 67.148438 28.363281 67.21875 28.191406 67.285156 27.996094 L 67.347656 28.0625 L 67.367188 28.199219 C 67.402344 28.84375 67.75 29.238281 68.339844 29.453125 C 68.542969 29.527344 68.746094 29.617188 68.933594 29.726562 C 69.703125 30.15625 70.570312 29.996094 71.121094 29.3125 C 71.207031 29.207031 71.289062 29.097656 71.410156 28.9375 C 71.460938 29.175781 71.5 29.355469 71.535156 29.539062 C 71.625 29.984375 71.84375 30.359375 72.171875 30.671875 C 72.476562 30.964844 72.898438 30.984375 73.25 30.746094 C 73.558594 30.535156 73.722656 30.261719 73.691406 29.871094 C 73.628906 29.175781 73.457031 28.511719 73.191406 27.867188 M 58.222656 23.667969 C 58.496094 22.941406 58.753906 22.261719 59.007812 21.582031 L 59.128906 21.613281 C 59.128906 21.96875 59.078125 22.335938 59.144531 22.683594 C 59.207031 23.003906 59.394531 23.296875 59.554688 23.667969 Z M 70.476562 27.222656 C 70.320312 27.355469 70.199219 27.535156 70.050781 27.679688 C 69.792969 27.925781 69.472656 27.882812 69.421875 27.554688 C 69.375 27.25 69.457031 26.921875 69.507812 26.605469 C 69.554688 26.296875 69.683594 26.078125 70.023438 25.941406 C 70.324219 25.820312 70.5625 25.539062 70.914062 25.265625 C 70.992188 26.023438 71.117188 26.691406 70.476562 27.222656 "/>
<path style=" stroke:none;fill-rule:nonzero;fill:rgb(0%,0%,0%);fill-opacity:1;" d="M 51.023438 13.359375 C 50.683594 13.417969 50.332031 13.445312 50.019531 13.570312 C 49.648438 13.722656 49.273438 13.921875 48.957031 14.167969 C 48.003906 14.910156 47.074219 15.679688 46.140625 16.449219 C 45.910156 16.640625 45.707031 16.875 45.375 16.84375 C 45.085938 16.816406 44.851562 16.929688 44.636719 17.101562 C 44.296875 17.375 43.964844 17.664062 43.617188 17.933594 C 43.457031 18.058594 43.285156 18.175781 43.101562 18.253906 C 42.792969 18.394531 42.46875 18.5 42.144531 18.617188 C 41.929688 18.238281 41.910156 17.839844 42.121094 17.425781 C 42.210938 17.257812 42.28125 17.078125 42.3125 16.894531 C 42.402344 16.355469 42.523438 15.820312 42.207031 15.292969 C 42.113281 15.136719 42.144531 14.898438 42.128906 14.699219 C 42.105469 14.433594 42.164062 14.132812 42.058594 13.910156 C 41.878906 13.542969 41.945312 13.21875 42.0625 12.875 C 42.109375 12.742188 42.15625 12.609375 42.191406 12.472656 C 42.355469 11.875 42.40625 11.265625 42.285156 10.652344 C 42.148438 9.976562 41.566406 9.761719 41.011719 10.183594 C 40.910156 10.257812 40.808594 10.335938 40.71875 10.402344 C 40.164062 10.261719 40.054688 10.277344 39.8125 10.640625 C 39.703125 10.804688 39.621094 11.007812 39.597656 11.203125 C 39.566406 11.480469 39.609375 11.765625 39.605469 12.050781 C 39.589844 12.929688 39.664062 13.824219 39.515625 14.679688 C 39.324219 15.785156 39.074219 16.894531 38.664062 17.957031 C 38.539062 18.273438 38.5 18.625 38.425781 18.960938 C 38.351562 19.28125 38.300781 19.605469 38.203125 19.917969 C 38.054688 20.410156 37.863281 20.890625 37.714844 21.386719 C 37.664062 21.5625 37.664062 21.761719 37.683594 21.949219 C 37.722656 22.25 37.902344 22.46875 38.195312 22.566406 C 38.457031 22.65625 38.652344 22.519531 38.8125 22.324219 C 39 22.09375 39.183594 21.859375 39.378906 21.632812 C 39.460938 21.535156 39.558594 21.453125 39.652344 21.363281 L 39.765625 21.425781 C 39.699219 21.691406 39.628906 21.957031 39.566406 22.226562 C 39.519531 22.425781 39.460938 22.625 39.457031 22.824219 C 39.449219 23.554688 39.34375 24.25 38.953125 24.894531 C 38.789062 25.164062 38.699219 25.535156 38.976562 25.769531 C 39.277344 26.027344 39.242188 26.308594 39.1875 26.621094 C 39.015625 27.59375 38.835938 28.566406 38.652344 29.539062 C 38.621094 29.707031 38.570312 29.875 38.496094 30.03125 C 38.246094 30.5625 38.160156 31.132812 38.03125 31.699219 C 37.894531 32.308594 38.179688 32.695312 38.539062 33.078125 C 38.757812 33.3125 38.976562 33.335938 39.195312 33.109375 C 39.410156 32.890625 39.632812 32.628906 39.722656 32.347656 C 39.90625 31.761719 40.105469 31.1875 40.367188 30.636719 C 40.433594 30.496094 40.46875 30.335938 40.503906 30.183594 C 40.632812 29.585938 40.753906 28.984375 40.875 28.386719 C 40.992188 27.820312 41.113281 27.253906 41.246094 26.613281 C 41.746094 26.847656 41.988281 26.519531 42.246094 26.207031 C 42.304688 26.136719 42.417969 26.109375 42.527344 26.046875 C 42.632812 26.328125 42.6875 26.582031 42.820312 26.789062 C 42.953125 26.992188 43.167969 27.140625 43.34375 27.320312 L 43.449219 27.472656 C 43.847656 28.207031 44.285156 28.925781 44.34375 29.785156 C 44.378906 30.316406 44.644531 30.699219 45.035156 31.011719 C 45.5 31.386719 45.761719 31.886719 45.878906 32.445312 C 46.039062 33.207031 46.425781 33.847656 46.882812 34.445312 C 47.085938 34.710938 47.179688 34.980469 47.21875 35.300781 C 47.246094 35.5625 47.269531 35.847656 47.386719 36.074219 C 47.582031 36.460938 47.730469 36.839844 47.761719 37.273438 C 47.785156 37.589844 48.035156 37.78125 48.332031 37.785156 C 48.664062 37.789062 48.828125 37.652344 48.90625 37.289062 C 48.921875 37.230469 48.921875 37.167969 48.933594 37.074219 C 49.40625 37.082031 49.636719 36.957031 49.699219 36.59375 C 49.78125 36.097656 49.832031 35.597656 49.640625 35.105469 C 49.546875 34.871094 49.472656 34.632812 49.390625 34.394531 C 48.929688 32.992188 48.488281 31.585938 48.410156 30.089844 C 48.390625 29.738281 48.199219 29.367188 48.003906 29.054688 C 47.671875 28.53125 47.421875 28 47.324219 27.371094 C 47.1875 26.527344 46.84375 26.230469 46 26.089844 C 45.683594 26.035156 45.398438 25.9375 45.195312 25.65625 C 44.746094 25.011719 44.277344 24.378906 43.820312 23.742188 C 43.757812 23.652344 43.707031 23.554688 43.652344 23.460938 C 43.5 23.207031 43.355469 22.945312 43.195312 22.703125 C 42.863281 22.203125 43.046875 21.613281 43.613281 21.394531 C 43.964844 21.261719 44.320312 21.136719 44.667969 21 C 45.671875 20.617188 46.363281 19.96875 46.625 18.882812 C 46.773438 18.253906 47.101562 17.71875 47.757812 17.472656 C 47.886719 17.421875 48.003906 17.335938 48.132812 17.277344 C 48.789062 16.976562 49.257812 16.488281 49.566406 15.839844 C 49.683594 15.589844 49.878906 15.425781 50.085938 15.25 C 50.527344 14.875 50.9375 14.460938 51.347656 14.050781 C 51.46875 13.929688 51.550781 13.769531 51.449219 13.582031 C 51.359375 13.40625 51.207031 13.328125 51.023438 13.359375 "/>
<path style=" stroke:none;fill-rule:nonzero;fill:rgb(0%,0%,0%);fill-opacity:1;" d="M 121.183594 33.769531 C 121.339844 33.554688 121.390625 33.300781 121.316406 33.050781 C 121.191406 32.648438 121.054688 32.246094 120.890625 31.855469 C 120.621094 31.226562 120.46875 30.597656 120.578125 29.890625 C 120.75 28.777344 120.503906 27.71875 119.828125 26.8125 C 119.535156 26.425781 119.429688 26.058594 119.496094 25.597656 C 119.535156 25.304688 119.53125 25.003906 119.359375 24.730469 C 118.96875 24.105469 118.589844 23.472656 117.910156 23.09375 C 117.671875 22.960938 117.679688 22.679688 117.914062 22.523438 C 118.058594 22.429688 118.226562 22.378906 118.378906 22.292969 C 118.652344 22.144531 118.9375 22.007812 119.183594 21.816406 C 119.488281 21.582031 119.8125 21.414062 120.191406 21.34375 C 120.339844 21.3125 120.480469 21.238281 120.617188 21.164062 C 121.074219 20.917969 121.375 20.519531 121.636719 20.082031 C 121.789062 19.828125 121.847656 19.558594 121.8125 19.269531 C 121.792969 19.082031 121.789062 18.886719 121.738281 18.710938 C 121.667969 18.457031 121.613281 18.164062 121.449219 17.984375 C 121.136719 17.640625 120.933594 17.238281 120.6875 16.863281 C 120.535156 16.628906 120.480469 16.453125 120.644531 16.183594 C 120.882812 15.792969 120.789062 15.441406 120.457031 15.128906 C 120.085938 14.78125 119.664062 14.625 119.160156 14.742188 C 118.738281 14.835938 118.351562 14.738281 117.976562 14.546875 C 117.394531 14.25 117.019531 14.277344 116.589844 14.761719 C 116.15625 15.253906 115.769531 15.792969 115.367188 16.3125 C 115.304688 16.394531 115.246094 16.480469 115.171875 16.582031 C 114.925781 16.359375 114.945312 16.085938 114.914062 15.828125 C 114.84375 15.253906 114.785156 14.675781 114.667969 14.109375 C 114.601562 13.773438 114.375 13.625 114.109375 13.625 C 113.824219 13.621094 113.558594 13.824219 113.46875 14.152344 C 113.433594 14.28125 113.449219 14.425781 113.445312 14.5625 C 113.429688 14.96875 113.441406 15.375 113.398438 15.78125 C 113.316406 16.558594 113.148438 17.335938 113.128906 18.113281 C 113.105469 18.96875 112.980469 19.796875 112.800781 20.628906 C 112.738281 20.914062 112.769531 21.21875 112.789062 21.511719 C 112.8125 21.890625 113.039062 22.136719 113.363281 22.316406 C 113.769531 22.539062 113.863281 22.8125 113.691406 23.253906 C 113.59375 23.5 113.460938 23.734375 113.367188 23.984375 C 113.199219 24.414062 113.171875 24.851562 113.402344 25.261719 C 113.652344 25.707031 113.65625 26.132812 113.519531 26.617188 C 113.410156 27 113.363281 27.429688 113.414062 27.824219 C 113.480469 28.328125 113.488281 28.820312 113.425781 29.320312 C 113.398438 29.523438 113.375 29.734375 113.402344 29.933594 C 113.425781 30.089844 113.488281 30.273438 113.597656 30.386719 C 113.996094 30.816406 114.636719 30.714844 114.863281 30.15625 C 114.996094 29.832031 115.046875 29.457031 115.054688 29.101562 C 115.0625 28.554688 115.175781 28.058594 115.398438 27.554688 C 115.5625 27.191406 115.621094 26.777344 115.695312 26.378906 C 115.742188 26.136719 115.726562 25.890625 115.738281 25.710938 C 115.847656 25.792969 115.988281 25.890625 116.121094 25.992188 C 116.757812 26.480469 117.214844 27.109375 117.605469 27.800781 C 117.753906 28.058594 117.921875 28.316406 118.132812 28.519531 C 118.582031 28.960938 118.753906 29.476562 118.722656 30.09375 C 118.710938 30.386719 118.710938 30.707031 118.8125 30.976562 C 119.007812 31.492188 119.136719 32.019531 119.242188 32.5625 C 119.339844 33.058594 119.535156 33.527344 119.917969 33.886719 C 120.320312 34.261719 120.867188 34.210938 121.183594 33.769531 M 117.539062 20.125 C 117.417969 20.351562 117.21875 20.535156 117.039062 20.757812 C 116.925781 20.679688 116.828125 20.644531 116.789062 20.578125 C 116.605469 20.261719 116.390625 19.988281 116.105469 19.753906 C 116 19.667969 116 19.460938 115.941406 19.28125 C 116.429688 19.167969 116.699219 18.90625 116.863281 18.496094 C 117.144531 17.804688 117.300781 17.734375 118.238281 17.824219 C 117.550781 18.289062 117.554688 18.84375 117.703125 19.46875 C 117.75 19.664062 117.640625 19.925781 117.539062 20.125 "/>
<path style=" stroke:none;fill-rule:nonzero;fill:rgb(0%,0%,0%);fill-opacity:1;" d="M 121.324219 22.472656 C 120.964844 22.570312 120.8125 22.820312 120.882812 23.175781 C 120.964844 23.59375 121.21875 23.828125 121.640625 23.792969 C 122.007812 23.757812 122.304688 23.890625 122.628906 24.011719 C 123.117188 24.199219 123.488281 24.65625 124.097656 24.582031 C 124.0625 24.703125 124.050781 24.785156 124.011719 24.847656 C 123.769531 25.269531 123.675781 25.714844 123.660156 26.199219 C 123.65625 26.417969 123.546875 26.652344 123.433594 26.847656 C 123.277344 27.113281 123.226562 27.378906 123.308594 27.660156 C 123.371094 27.886719 123.441406 28.117188 123.554688 28.320312 C 123.691406 28.558594 123.699219 28.757812 123.582031 29.015625 C 123.332031 29.578125 123.265625 30.164062 123.574219 30.742188 C 123.625 30.835938 123.664062 30.953125 123.660156 31.058594 C 123.625 31.730469 123.679688 32.429688 123.507812 33.066406 C 123.273438 33.957031 123.25 34.835938 123.273438 35.730469 C 123.28125 36.136719 123.367188 36.546875 123.621094 36.882812 C 123.867188 37.207031 124.167969 37.179688 124.375 36.832031 C 124.421875 36.753906 124.445312 36.660156 124.472656 36.566406 C 124.609375 36.121094 124.746094 35.671875 124.878906 35.21875 C 124.949219 34.980469 125.039062 34.738281 125.070312 34.496094 C 125.195312 33.4375 125.316406 32.378906 125.410156 31.316406 C 125.464844 30.726562 125.558594 30.164062 125.910156 29.671875 C 125.992188 29.558594 126.0625 29.417969 126.070312 29.289062 C 126.105469 28.835938 126.167969 28.375 126 27.933594 C 125.917969 27.730469 125.929688 27.539062 126.035156 27.347656 C 126.359375 26.773438 126.390625 26.15625 126.3125 25.519531 C 126.273438 25.230469 126.277344 24.933594 126.265625 24.636719 L 126.378906 24.554688 C 126.542969 24.632812 126.734375 24.671875 126.863281 24.789062 C 127.402344 25.285156 128.058594 25.335938 128.714844 25.234375 C 129.078125 25.175781 129.347656 25.234375 129.628906 25.441406 C 129.988281 25.714844 130.398438 25.855469 130.851562 25.875 C 131.488281 25.898438 131.730469 25.679688 131.761719 25.0625 C 131.886719 24.96875 132.023438 24.886719 132.140625 24.785156 C 132.464844 24.503906 132.496094 24.15625 132.191406 23.84375 C 132.046875 23.691406 131.851562 23.558594 131.652344 23.484375 C 131.390625 23.386719 131.109375 23.332031 130.832031 23.296875 C 130.628906 23.269531 130.480469 23.203125 130.347656 23.046875 C 130.089844 22.742188 129.746094 22.605469 129.351562 22.597656 C 129.054688 22.59375 128.757812 22.597656 128.453125 22.597656 C 128.054688 22.046875 127.929688 22.007812 127.1875 22.105469 C 126.867188 22.148438 126.539062 22.226562 126.164062 22.066406 C 126.242188 21.824219 126.292969 21.574219 126.394531 21.355469 C 126.703125 20.695312 126.914062 20.003906 127.042969 19.292969 C 127.183594 18.519531 127.332031 17.753906 127.695312 17.046875 L 127.726562 16.957031 C 127.808594 16.414062 127.824219 15.894531 127.355469 15.484375 C 126.988281 15.15625 126.976562 15.070312 127.222656 14.644531 C 127.476562 14.210938 127.75 13.789062 127.980469 13.34375 C 128.113281 13.082031 128.226562 12.792969 128.257812 12.507812 C 128.316406 11.933594 127.921875 11.601562 127.34375 11.695312 C 126.828125 11.777344 126.519531 12.109375 126.316406 12.566406 C 126.167969 12.894531 126.007812 13.214844 125.851562 13.539062 C 125.449219 14.371094 125.027344 15.195312 124.910156 16.136719 C 124.867188 16.472656 124.738281 16.800781 124.625 17.125 C 124.449219 17.632812 124.308594 18.144531 124.316406 18.6875 C 124.324219 19.054688 124.242188 19.398438 124.078125 19.730469 C 123.855469 20.179688 123.796875 20.648438 123.898438 21.152344 C 124.007812 21.714844 123.835938 21.914062 123.273438 21.917969 C 122.96875 21.917969 122.675781 21.945312 122.433594 22.152344 C 122.21875 22.332031 121.96875 22.398438 121.695312 22.414062 C 121.570312 22.421875 121.445312 22.441406 121.324219 22.472656 "/>
<path style=" stroke:none;fill-rule:nonzero;fill:rgb(0%,0%,0%);fill-opacity:1;" d="M 36.113281 26.433594 C 35.550781 26.835938 35.183594 26.839844 34.617188 26.441406 C 34.449219 26.324219 34.289062 26.195312 34.121094 26.082031 C 33.824219 25.882812 33.511719 25.816406 33.210938 26.066406 C 33.023438 26.214844 32.835938 26.210938 32.640625 26.109375 C 32.308594 25.9375 32 26.003906 31.707031 26.191406 C 31.480469 26.332031 31.269531 26.5 31.039062 26.632812 C 30.722656 26.816406 30.429688 26.648438 30.425781 26.285156 C 30.425781 26.164062 30.449219 26.03125 30.5 25.921875 C 30.597656 25.691406 30.71875 25.472656 30.84375 25.253906 C 30.996094 24.980469 31.191406 24.726562 31.316406 24.441406 C 31.601562 23.785156 31.496094 23.460938 30.925781 23.082031 C 30.859375 23.039062 30.792969 22.996094 30.691406 22.929688 C 30.769531 22.324219 31.160156 21.964844 31.574219 21.617188 C 32.125 21.15625 32.683594 20.699219 33.214844 20.210938 C 33.511719 19.9375 33.710938 19.597656 33.503906 19.171875 C 33.800781 18.984375 34.097656 18.914062 34.421875 18.914062 C 34.6875 18.917969 34.953125 18.917969 35.222656 18.90625 C 35.894531 18.882812 36.484375 18.667969 36.898438 18.101562 C 37.074219 17.863281 37.152344 17.589844 37.007812 17.304688 C 36.871094 17.046875 36.640625 16.929688 36.34375 16.941406 C 35.828125 16.964844 35.3125 16.972656 34.796875 17.019531 C 34.566406 17.039062 34.375 17.042969 34.210938 16.839844 C 34.027344 16.621094 33.777344 16.550781 33.488281 16.570312 C 32.78125 16.613281 32.140625 16.851562 31.597656 17.308594 C 31.429688 17.449219 31.265625 17.679688 31.238281 17.886719 C 31.171875 18.410156 30.882812 18.652344 30.402344 18.742188 L 30.179688 18.808594 C 29.238281 19.078125 28.929688 19.460938 28.800781 20.417969 C 28.75 20.816406 28.695312 21.246094 28.511719 21.589844 C 28.25 22.078125 28.113281 22.570312 28.082031 23.113281 C 28.0625 23.46875 27.925781 23.777344 27.679688 24.042969 C 27.511719 24.230469 27.320312 24.410156 27.207031 24.628906 C 27.058594 24.914062 26.933594 25.226562 26.878906 25.542969 C 26.816406 25.9375 27.074219 26.195312 27.46875 26.226562 C 27.542969 26.230469 27.613281 26.226562 27.726562 26.226562 C 27.625 26.402344 27.523438 26.527344 27.476562 26.671875 C 27.378906 26.949219 27.269531 27.234375 27.246094 27.519531 C 27.207031 27.972656 27.421875 28.179688 27.878906 28.21875 C 28.097656 28.234375 28.316406 28.226562 28.539062 28.230469 C 28.996094 28.242188 29.140625 28.390625 29.050781 28.839844 C 28.96875 29.253906 29.050781 29.609375 29.394531 29.84375 C 29.710938 30.0625 29.773438 30.347656 29.78125 30.691406 C 29.785156 30.910156 29.808594 31.132812 29.871094 31.34375 C 29.914062 31.5 30.011719 31.65625 30.121094 31.78125 C 30.316406 31.992188 30.585938 32.015625 30.792969 31.824219 C 30.972656 31.65625 31.128906 31.449219 31.246094 31.234375 C 31.425781 30.90625 31.546875 30.539062 31.722656 30.207031 C 31.859375 29.949219 32.019531 29.691406 32.210938 29.46875 C 32.378906 29.273438 32.585938 29.183594 32.878906 29.292969 C 33.058594 29.363281 33.316406 29.316406 33.507812 29.246094 C 33.738281 29.15625 33.953125 29.011719 34.136719 28.84375 C 34.457031 28.554688 34.796875 28.476562 35.21875 28.546875 C 36.1875 28.707031 37.082031 28.066406 37.234375 27.097656 C 37.269531 26.898438 37.226562 26.644531 37.125 26.472656 C 36.910156 26.109375 36.558594 26.113281 36.113281 26.433594 "/>
<path style=" stroke:none;fill-rule:nonzero;fill:rgb(0%,0%,0%);fill-opacity:1;" d="M 111.140625 23.851562 C 110.796875 23.4375 110.714844 23.039062 110.945312 22.554688 C 111.09375 22.246094 111.246094 21.929688 111.335938 21.597656 C 111.5625 20.789062 111.542969 19.988281 111.136719 19.222656 C 111.050781 19.0625 111.011719 18.867188 110.992188 18.6875 C 110.949219 18.296875 110.816406 17.972656 110.527344 17.6875 C 110.019531 17.1875 109.46875 16.765625 108.785156 16.527344 C 107.84375 16.195312 106.96875 16.304688 106.238281 16.976562 C 105.773438 17.410156 105.410156 17.957031 104.992188 18.445312 C 104.863281 18.597656 104.722656 18.75 104.558594 18.855469 C 103.828125 19.320312 103.261719 19.902344 103.117188 20.796875 C 103.035156 21.316406 102.851562 21.769531 102.5 22.1875 C 102.046875 22.722656 102.007812 23.53125 102.398438 24.03125 C 102.914062 24.691406 103.003906 25.421875 102.898438 26.210938 C 102.859375 26.523438 102.839844 26.835938 102.804688 27.214844 C 102.84375 27.496094 102.855469 27.84375 102.949219 28.171875 C 103.058594 28.550781 103.363281 28.75 103.695312 28.664062 C 104.085938 28.5625 104.359375 28.742188 104.652344 28.929688 C 104.886719 29.074219 105.132812 29.214844 105.386719 29.324219 C 105.535156 29.390625 105.640625 29.460938 105.722656 29.617188 C 105.972656 30.109375 106.28125 30.273438 106.839844 30.167969 C 107.265625 30.082031 107.675781 29.917969 108.125 30.003906 C 108.222656 30.023438 108.351562 29.984375 108.441406 29.929688 C 108.898438 29.660156 109.417969 29.449219 109.78125 29.082031 C 110.429688 28.429688 111.023438 27.707031 111.5625 26.957031 C 111.882812 26.507812 112.121094 25.980469 111.96875 25.363281 C 111.828125 24.78125 111.507812 24.296875 111.140625 23.851562 M 107.714844 25.449219 C 107.945312 25.929688 107.929688 25.9375 107.882812 26.410156 C 107.59375 26.4375 107.289062 26.46875 107.019531 26.492188 C 106.792969 26.140625 106.59375 25.828125 106.390625 25.515625 C 106.21875 25.253906 106.003906 25.050781 105.667969 25.066406 C 105.421875 25.078125 105.335938 24.933594 105.296875 24.730469 C 105.253906 24.515625 105.214844 24.296875 105.171875 24.082031 C 105.046875 23.480469 105.1875 22.953125 105.652344 22.542969 C 106.101562 22.144531 106.28125 21.683594 106.179688 21.078125 C 106.097656 20.597656 106.4375 20.3125 106.84375 20.109375 C 106.773438 20.414062 106.699219 20.714844 106.640625 21.019531 C 106.515625 21.636719 106.773438 22.085938 107.273438 22.425781 C 107.386719 22.503906 107.515625 22.566406 107.632812 22.648438 C 107.933594 22.855469 107.992188 23.027344 107.878906 23.375 C 107.824219 23.539062 107.75 23.695312 107.683594 23.855469 C 107.464844 24.390625 107.453125 24.914062 107.714844 25.449219 "/>
<path style=" stroke:none;fill-rule:nonzero;fill:rgb(0%,0%,0%);fill-opacity:1;" d="M 24.917969 21.25 C 24.898438 20.65625 25 20.09375 25.207031 19.542969 C 25.363281 19.136719 25.445312 18.707031 25.246094 18.304688 C 25.027344 17.855469 24.976562 17.410156 25.066406 16.933594 L 25.066406 16.746094 C 25.039062 16.386719 24.871094 16.207031 24.507812 16.175781 C 24.183594 16.148438 23.886719 16.21875 23.613281 16.402344 C 23.519531 16.46875 23.394531 16.527344 23.285156 16.523438 C 22.714844 16.488281 22.5 16.644531 22.574219 17.195312 C 22.648438 17.792969 22.578125 18.351562 22.371094 18.90625 C 22.339844 18.992188 22.328125 19.085938 22.308594 19.179688 C 22.238281 19.519531 22.285156 19.808594 22.640625 19.96875 C 22.867188 20.070312 22.917969 20.269531 22.878906 20.480469 C 22.84375 20.675781 22.761719 20.867188 22.6875 21.054688 C 22.558594 21.375 22.402344 21.683594 22.292969 22.011719 C 22.113281 22.546875 22.167969 23.035156 22.652344 23.40625 C 22.839844 23.554688 22.9375 23.742188 22.925781 23.976562 C 22.90625 24.445312 22.90625 24.917969 22.839844 25.382812 C 22.796875 25.699219 22.738281 26.007812 22.878906 26.304688 C 23.007812 26.574219 23.027344 26.851562 22.960938 27.132812 C 22.882812 27.476562 22.953125 27.785156 23.144531 28.070312 C 23.320312 28.328125 23.382812 28.613281 23.371094 28.921875 C 23.367188 29.203125 23.371094 29.488281 23.371094 29.769531 L 23.359375 29.769531 C 23.359375 30.097656 23.347656 30.429688 23.363281 30.761719 C 23.378906 31.160156 23.464844 31.542969 23.753906 31.839844 C 24.074219 32.171875 24.457031 32.132812 24.699219 31.75 C 24.765625 31.644531 24.824219 31.519531 24.839844 31.402344 C 24.878906 31.027344 24.945312 30.648438 24.917969 30.28125 C 24.855469 29.382812 24.945312 28.523438 25.375 27.71875 C 25.449219 27.585938 25.472656 27.421875 25.527344 27.273438 C 25.761719 26.660156 25.691406 26.074219 25.386719 25.503906 L 25.34375 25.421875 C 25.1875 25.117188 25.195312 24.824219 25.382812 24.527344 C 25.53125 24.289062 25.644531 24.023438 25.804688 23.792969 C 26.164062 23.269531 26.113281 22.589844 25.414062 22.179688 C 25.023438 21.953125 24.929688 21.644531 24.917969 21.25 "/>
<path style=" stroke:none;fill-rule:nonzero;fill:rgb(0%,0%,0%);fill-opacity:1;" d="M 23.109375 14.476562 C 23.476562 14.773438 23.902344 14.882812 24.34375 14.722656 C 24.796875 14.558594 25.015625 14.179688 25.050781 13.699219 C 25.097656 13.058594 25.191406 12.425781 25.34375 11.796875 C 25.511719 11.121094 25.097656 10.703125 24.34375 10.808594 C 24.382812 10.578125 24.425781 10.398438 24.445312 10.21875 C 24.511719 9.675781 24.113281 9.171875 23.636719 9.226562 C 23.277344 9.265625 22.941406 9.398438 22.683594 9.683594 C 22.398438 10.003906 22.296875 10.5 22.53125 10.859375 C 22.742188 11.175781 22.679688 11.429688 22.519531 11.726562 C 22.355469 12.03125 22.203125 12.34375 22.101562 12.671875 C 21.96875 13.113281 22.023438 13.546875 22.390625 13.878906 C 22.625 14.085938 22.867188 14.277344 23.109375 14.476562 "/>
</g>
</svg>
